<?xml version="1.0" encoding="utf-8"?><svg viewBox="0 0 50 49" xmlns="http://www.w3.org/2000/svg" xmlns:xlink="http://www.w3.org/1999/xlink"><style>:root>svg{display:none}:root>svg:target{display:block}</style><svg viewBox="0 0 18.94 16.969" id="cart" xmlns="http://www.w3.org/2000/svg"><defs><style>.acls-1{fill:#243f4d;fill-rule:evenodd}</style></defs><path class="acls-1" d="M5.53 16.978a2.074 2.074 0 110-4.147 2.056 2.056 0 011.46.6 2.03 2.03 0 01.61 1.466 2.071 2.071 0 01-2.07 2.081zm0-2.963a.889.889 0 10.34 1.71.9.9 0 00.55-.824.92.92 0 00-.26-.629.9.9 0 00-.63-.257zm8.39 2.963a2.045 2.045 0 01-1.46-.607 2.068 2.068 0 011.46-3.54 1.953 1.953 0 011.47.6 2.085 2.085 0 01-.67 3.383 2.093 2.093 0 01-.8.164zm0-2.963a.978.978 0 00-.82.548.887.887 0 001.16 1.161.891.891 0 00.29-1.452.9.9 0 00-.63-.257zm-11.27.164a.562.562 0 01-.25-.056.59.59 0 01-.29-.787 3.686 3.686 0 013.05-2.151L4.11 5.794a.591.591 0 111.16-.228l1.09 5.578h9.43l1.8-6.771H4.29A4.346 4.346 0 01.01.68.587.587 0 01.5.007a.6.6 0 01.68.5 3.159 3.159 0 003.11 2.682h14.07a.582.582 0 01.47.232.594.594 0 01.11.513l-2.13 7.956a.59.59 0 01-.57.44H5.88a.03.03 0 00-.02 0 2.66 2.66 0 00-2.68 1.51.586.586 0 01-.53.338z"/></svg><svg viewBox="0 0 50 45" id="credit" xmlns="http://www.w3.org/2000/svg"><path d="M47.121 31.613a.844.844 0 00-.855.848v8.457a2.215 2.215 0 01-2.203 2.21H3.917a2.212 2.212 0 01-2.203-2.21V28.727h27.848a.855.855 0 00.855-.856.856.856 0 00-.855-.86H1.715v-5.597h10.07a.829.829 0 00.602-.246.86.86 0 00-.602-1.46l-10.07-.001v-2.945a2.211 2.211 0 012.203-2.219h25.645a.854.854 0 000-1.707H3.918a3.917 3.917 0 00-3.906 3.926v24.156a3.918 3.918 0 003.906 3.918h40.145a3.918 3.918 0 003.906-3.918v-8.457a.845.845 0 00-.246-.602.861.861 0 00-.602-.246zM29.562 19.707H15.052a.86.86 0 00-.848.86.848.848 0 00.848.847h14.511a.851.851 0 00.856-.848.864.864 0 00-.855-.859zm-9.43 11.824H5.57a.854.854 0 000 1.707h14.563a.854.854 0 000-1.707zm-6.202 4.082H5.57a.854.854 0 000 1.707h8.36a.854.854 0 000-1.707zm35.336-13.922a.84.84 0 00.609-.25.84.84 0 00.246-.609v-4.879a3.098 3.098 0 00-2.437-3.035V6.762A6.755 6.755 0 0044.398.695a6.72 6.72 0 00-6.886 0 6.766 6.766 0 00-3.29 6.067v6.156a3.117 3.117 0 00-2.445 3.035V26.95a3.108 3.108 0 003.102 3.11h12.14a3.103 3.103 0 003.102-3.11v-3.262a.852.852 0 10-1.703 0v3.262a1.413 1.413 0 01-1.398 1.403H34.879a1.413 1.413 0 01-1.399-1.403V15.953a1.407 1.407 0 011.399-1.398h12.14c.77.004 1.395.629 1.399 1.398v4.879a.853.853 0 00.246.61c.156.16.375.25.602.25zm-3.297-8.847h-10.04V6.762c0-2.782 2.247-5.035 5.02-5.035 2.774 0 5.02 2.253 5.02 5.035zm-5.02 4.418a3.164 3.164 0 00-.847 6.21v2.087a.838.838 0 00.246.605.845.845 0 001.207 0c.16-.16.25-.379.25-.605v-2.086a3.165 3.165 0 002.265-3.477 3.16 3.16 0 00-3.12-2.734zm0 4.625a1.457 1.457 0 01-.011-2.914 1.455 1.455 0 011.46 1.453c0 .8-.648 1.457-1.449 1.46zm0 0"/></svg><svg viewBox="0 0 19 17" id="heart1" xmlns="http://www.w3.org/2000/svg"><path fill-rule="evenodd" clip-rule="evenodd" d="M9.912 16.244a.71.71 0 01-.279-.056c-.353.192-8.65-3.75-8.65-10.76C1.74 2.778 3.19.72 5.8.72c1.744 0 3.86.918 4.112 2.589.847-1.671 2.37-2.59 4.338-2.59 2.384 0 4.5 2.058 4.592 4.684 0 7.034-8.297 10.976-8.65 10.784-.089.038.608.056-.28.056zM5.8 2.106c-1.846 0-3.343 1.469-3.408 3.346.001 5.407 6.125 8.662 7.52 9.334 1.396-.672 7.521-3.93 7.521-9.358-.066-1.853-1.563-3.322-3.183-3.322-2.07 0-3.568 1.469-3.633 3.346a.7.7 0 01-.705.669.699.699 0 01-.704-.67C9.143 3.576 7.646 2.107 5.8 2.107z"/></svg><svg viewBox="0 0 49 49" id="hours" xmlns="http://www.w3.org/2000/svg"><path d="M45.406 11.578a.941.941 0 00-1.293-.3.941.941 0 00-.3 1.292c5.769 9.266 4.117 21.325-3.926 28.703-8.043 7.375-20.2 7.98-28.934 1.438a.938.938 0 00-1.289.203c-.3.406-.23.98.164 1.297 9.457 7.082 22.617 6.43 31.328-1.555 8.707-7.988 10.492-21.043 4.25-31.078zM22.375 33.52h-7.55l4.745-4.75a12.69 12.69 0 003.742-9.032 5.845 5.845 0 00-11.687 0 .937.937 0 001.875 0 3.97 3.97 0 017.938 0 10.835 10.835 0 01-3.196 7.711l-6.344 6.34a.952.952 0 00-.199 1.031.93.93 0 00.867.57h9.813a.937.937 0 00.933-.937.937.937 0 00-.937-.933zm15.04-6.442h-2.599v-1.52a.942.942 0 00-.937-.906.937.937 0 00-.938.907v1.52h-5.289l5.29-8.849v4.211a.934.934 0 001.414.836.943.943 0 00.46-.836v-7.62a.968.968 0 00-.457-.801.94.94 0 00-1.285.332L25.2 27.539a.924.924 0 00-.012.941.953.953 0 00.817.48h6.937v5.5a.94.94 0 001.875 0v-5.5h2.598a.942.942 0 000-1.882zM42.745 4.45a.938.938 0 00-.48-.82.937.937 0 00-1.395.86l.04 1.75c-9.946-8.895-25.18-8.22-34.298 1.527-9.12 9.742-8.785 24.988.75 34.324.176.172.41.27.657.27a.906.906 0 00.668-.282.938.938 0 00-.012-1.328A22.68 22.68 0 0124.559 1.879a22.757 22.757 0 0115.105 5.77l-1.844.042a.931.931 0 00-.922.946c.004.515.43.93.946.922h.023l4.059-.09a.927.927 0 00.656-.29.928.928 0 00.258-.667zm0 0"/></svg><svg viewBox="0 0 20.03 20.031" id="menu" xmlns="http://www.w3.org/2000/svg"><defs><style>.ecls-1{fill:#fff;fill-rule:evenodd}</style></defs><path class="ecls-1" d="M2.15 4.287a2.146 2.146 0 112.14-2.145 2.145 2.145 0 01-2.14 2.145zm0 7.869a2.146 2.146 0 112.14-2.147 2.146 2.146 0 01-2.14 2.147zm0 7.868a2.146 2.146 0 112.14-2.146 2.145 2.145 0 01-2.14 2.146zm7.86-15.737a2.146 2.146 0 112.15-2.145 2.143 2.143 0 01-2.15 2.145zm0 7.869a2.146 2.146 0 112.15-2.147 2.144 2.144 0 01-2.15 2.147zm0 7.868a2.146 2.146 0 112.15-2.146 2.143 2.143 0 01-2.15 2.146zm7.87-15.737a2.146 2.146 0 112.15-2.145 2.143 2.143 0 01-2.15 2.145zm0 7.869a2.146 2.146 0 112.15-2.147 2.144 2.144 0 01-2.15 2.147zm0 7.868a2.146 2.146 0 112.15-2.146 2.143 2.143 0 01-2.15 2.146z"/></svg><svg viewBox="0 0 22 20" id="product-cart" xmlns="http://www.w3.org/2000/svg"><defs><style>.fcls-1{fill:#fff;fill-rule:evenodd}</style></defs><path id="fForma_1" data-name="Forma 1" class="fcls-1" d="M800.814 1564.63h2.333l3.323 12.04a.812.812 0 00.787.59h10.214a.821.821 0 00.746-.48l3.717-8.56a.836.836 0 00-.068-.78.813.813 0 00-.678-.37H809.9a.82.82 0 000 1.64h10.04l-3.011 6.92h-9.062l-3.323-12.03a.808.808 0 00-.787-.6h-2.943a.815.815 0 000 1.63zm5.67 18.37a1.85 1.85 0 10-1.845-1.85 1.85 1.85 0 001.845 1.85zm11.53 0h.135a1.907 1.907 0 10-.135 0z" transform="translate(-800 -1563)"/></svg><svg viewBox="0 0 22 18" id="product-heart" xmlns="http://www.w3.org/2000/svg"><defs><style>.gcls-1{fill:#a3bbc8;fill-rule:evenodd}</style></defs><path id="gForma_1" data-name="Forma 1" class="gcls-1" d="M882.99 1569.82a6.208 6.208 0 00-1.849-4.1A5.871 5.871 0 00877 1564c-2.311 0-3.948 1.78-4.827 2.74a2.156 2.156 0 01-.156.17l-.083-.09c-.8-.92-2.476-2.82-4.938-2.82a5.873 5.873 0 00-4.139 1.72 6.208 6.208 0 00-1.849 4.1 6.845 6.845 0 001.271 4.34 29.307 29.307 0 004.763 4.75c1.705 1.41 3.95 3.09 4.965 3.09 1.032 0 3.269-1.68 4.965-3.09a29.234 29.234 0 004.746-4.75 6.935 6.935 0 001.272-4.34zm-2.376 3.61a27 27 0 01-4.431 4.42c-2.406 2-3.831 2.79-4.172 2.82-.342-.03-1.77-.83-4.188-2.84a26.78 26.78 0 01-4.437-4.4 5.6 5.6 0 01-1.054-3.54 4.807 4.807 0 014.666-4.57c1.863 0 3.216 1.54 3.943 2.37a1.52 1.52 0 001.059.76 1.731 1.731 0 001.151-.81c.794-.87 2.122-2.32 3.851-2.32a4.807 4.807 0 014.666 4.57 5.528 5.528 0 01-1.054 3.54z" transform="translate(-861 -1564)"/></svg><svg viewBox="0 0 20 20" id="product-search" xmlns="http://www.w3.org/2000/svg"><defs><style>.hcls-1{fill:#a3bbc8;fill-rule:evenodd}</style></defs><path id="hForma_1" data-name="Forma 1" class="hcls-1" d="M759.45 1579.8l-4.588-4.59a8.827 8.827 0 01-2.651 2.65l4.588 4.59a1.874 1.874 0 002.651-2.65zm-4.45-9.3a7.5 7.5 0 10-7.5 7.5 7.5 7.5 0 007.5-7.5zm-7.5 5.62a5.625 5.625 0 115.625-5.62 5.628 5.628 0 01-5.625 5.62zm-4.375-5.62h1.25a3.135 3.135 0 013.125-3.13v-1.25a4.386 4.386 0 00-4.375 4.38z" transform="translate(-740 -1563)"/></svg><svg viewBox="0 0 15.28 15.281" id="search" xmlns="http://www.w3.org/2000/svg"><defs><style>.icls-1{fill:#243f4d;fill-rule:evenodd}</style></defs><path id="iicon" class="icls-1" d="M1547.7 72.076a.617.617 0 01.75.485 2.583 2.583 0 00.78 1.489 3.036 3.036 0 001.49.777.636.636 0 01.49.743.649.649 0 01-.72.515 4.21 4.21 0 01-2.14-1.13 4.164 4.164 0 01-1.13-2.136.6.6 0 01.48-.743zm3.28-6.076a6.267 6.267 0 016.28 6.257 6.136 6.136 0 01-.57 2.6l2.34 2.036c1.7 1.746.74 3.266.29 3.717-.42.454-1.99 1.414-3.73-.292l-2.06-2.35A6.261 6.261 0 111550.98 66zm5.55 13.517a1.352 1.352 0 001.88.226 1.313 1.313 0 00-.23-1.874l-2.16-1.88a6.236 6.236 0 01-1.37 1.34zm-5.55-2.312a4.948 4.948 0 10-4.97-4.948 4.963 4.963 0 004.97 4.943z" transform="translate(-1544.72 -66)"/></svg><svg viewBox="0 0 50 30" id="truck" xmlns="http://www.w3.org/2000/svg"><path d="M9.188 4.934h-6.25a.814.814 0 00-.81.816c0 .453.364.82.81.82h6.25a.812.812 0 00.804-.82c0-.45-.36-.816-.805-.816zm.535 11.39H4.008c-.442 0-.801.363-.801.813 0 .449.36.812.8.812h5.716c.441 0 .8-.363.8-.812 0-.45-.359-.813-.8-.813zm-2.137-4.883H.805a.814.814 0 00-.809.817c0 .453.363.816.809.816H7.59a.811.811 0 00.805-.816.812.812 0 00-.81-.817zm0 11.391h-.66c-.442 0-.801.363-.801.813 0 .445.36.812.8.812h.657a.808.808 0 00.805-.812c0-.45-.36-.813-.801-.813zm-3.328 0H.805c-.442 0-.801.363-.801.813 0 .445.36.812.8.812h3.458a.81.81 0 00.797-.816c0-.45-.36-.813-.801-.809zm37.61-20.547h-6.794V.816a.8.8 0 00-.8-.804H21.851c-.446 0-.801.363-.801.812 0 .446.355.809.8.809h11.622v17.816a.815.815 0 00.39.727.793.793 0 00.82 0 .815.815 0 00.391-.727V3.91h6.793c3.672.008 6.645 3.024 6.645 6.746v13.746h-2.043c-.39-2.496-2.516-4.336-5.012-4.336-2.496 0-4.621 1.84-5.012 4.336h-1.37v-1.156a.825.825 0 00-.395-.73.786.786 0 00-.817 0 .816.816 0 00-.394.73v1.156h-8.504c-.395-2.496-2.52-4.332-5.012-4.332-2.496 0-4.621 1.836-5.012 4.332h-1.668V1.632h5.368c.441 0 .8-.362.8-.808 0-.449-.359-.812-.8-.812h-6.168a.8.8 0 00-.801.804V25.22c0 .449.355.816.8.82h2.47c.39 2.496 2.515 4.332 5.011 4.332 2.492 0 4.617-1.836 5.012-4.332h11.48c.39 2.496 2.516 4.336 5.012 4.336 2.496 0 4.621-1.84 5.012-4.336h2.84a.816.816 0 00.8-.82V10.656c-.004-4.617-3.687-8.36-8.242-8.37zM19.956 28.75c-1.926.004-3.488-1.574-3.492-3.523-.004-1.95 1.555-3.532 3.476-3.536 1.922 0 3.485 1.579 3.485 3.528 0 1.945-1.555 3.523-3.469 3.531zm21.504 0c-1.918-.008-3.469-1.586-3.469-3.531.004-1.938 1.559-3.508 3.477-3.504 1.914.004 3.46 1.578 3.46 3.52-.003 1.94-1.554 3.515-3.468 3.515zm.406-23.215H37.48a.813.813 0 00-.8.817v7.644c0 .45.36.813.8.816h8.63a.816.816 0 00.804-.816v-3.34c0-2.828-2.258-5.117-5.047-5.12zm3.438 7.645H38.28V7.168h3.586c1.899.004 3.438 1.562 3.438 3.488zM19.957 23.12a2.08 2.08 0 00-2.078 2.094c-.004 1.164.922 2.105 2.066 2.105 1.145 0 2.075-.937 2.075-2.101 0-1.157-.922-2.094-2.063-2.098zm0 2.574a.471.471 0 01-.465-.476.464.464 0 01.926 0 .473.473 0 01-.461.476zm21.504-2.574c-1.145-.004-2.074.938-2.078 2.098 0 1.16.926 2.101 2.07 2.101 1.145 0 2.074-.937 2.074-2.101 0-1.157-.925-2.094-2.066-2.098zm0 2.574a.474.474 0 010-.945c.254 0 .46.21.46.469a.47.47 0 01-.46.476zm4.644-8.656a.8.8 0 00-.8.805v2.058a.821.821 0 00.39.73.793.793 0 00.82 0 .821.821 0 00.391-.73v-2.058a.8.8 0 00-.797-.805zm0 0"/></svg></svg>