<?xml version="1.0" encoding="UTF-8"?>
<svg xmlns="http://www.w3.org/2000/svg" xmlns:xlink="http://www.w3.org/1999/xlink" width="50px" height="45px" viewBox="0 0 50 45" version="1.1">
<g id="surface1">
<path style=" stroke:none;fill-rule:evenodd;fill:rgb(63.921569%,73.333333%,78.431373%);fill-opacity:1;" d="M 47.121094 31.613281 C 46.894531 31.609375 46.679688 31.699219 46.515625 31.859375 C 46.355469 32.015625 46.265625 32.234375 46.265625 32.460938 L 46.265625 40.917969 C 46.261719 42.136719 45.277344 43.125 44.0625 43.128906 L 3.917969 43.128906 C 2.703125 43.125 1.714844 42.136719 1.714844 40.917969 L 1.714844 28.726562 L 29.5625 28.726562 C 30.035156 28.726562 30.417969 28.34375 30.417969 27.871094 C 30.417969 27.394531 30.035156 27.011719 29.5625 27.011719 L 1.714844 27.011719 L 1.714844 21.414062 L 11.785156 21.414062 C 12.011719 21.417969 12.226562 21.328125 12.386719 21.167969 C 12.542969 21.007812 12.632812 20.792969 12.632812 20.566406 C 12.632812 20.097656 12.253906 19.710938 11.785156 19.707031 L 1.714844 19.707031 L 1.714844 16.761719 C 1.710938 15.539062 2.699219 14.546875 3.917969 14.542969 L 29.5625 14.542969 C 30.03125 14.542969 30.414062 14.160156 30.414062 13.6875 C 30.414062 13.21875 30.03125 12.835938 29.5625 12.835938 L 3.917969 12.835938 C 1.757812 12.839844 0.0078125 14.597656 0.0117188 16.761719 L 0.0117188 40.917969 C 0.015625 43.082031 1.761719 44.832031 3.917969 44.835938 L 44.0625 44.835938 C 46.21875 44.832031 47.964844 43.082031 47.96875 40.917969 L 47.96875 32.460938 C 47.96875 32.234375 47.882812 32.019531 47.722656 31.859375 C 47.5625 31.703125 47.347656 31.613281 47.121094 31.613281 Z M 29.5625 19.707031 L 15.050781 19.707031 C 14.582031 19.710938 14.203125 20.097656 14.203125 20.566406 C 14.203125 20.792969 14.292969 21.007812 14.453125 21.167969 C 14.609375 21.328125 14.828125 21.417969 15.050781 21.414062 L 29.5625 21.414062 C 30.03125 21.417969 30.414062 21.039062 30.417969 20.566406 C 30.414062 20.09375 30.035156 19.710938 29.5625 19.707031 Z M 20.132812 31.53125 L 5.570312 31.53125 C 5.101562 31.53125 4.71875 31.914062 4.71875 32.382812 C 4.71875 32.855469 5.101562 33.238281 5.570312 33.238281 L 20.132812 33.238281 C 20.601562 33.238281 20.984375 32.855469 20.984375 32.382812 C 20.984375 31.914062 20.601562 31.53125 20.132812 31.53125 Z M 13.929688 35.613281 L 5.570312 35.613281 C 5.101562 35.613281 4.71875 35.992188 4.71875 36.464844 C 4.71875 36.9375 5.101562 37.320312 5.570312 37.320312 L 13.929688 37.320312 C 14.398438 37.320312 14.78125 36.9375 14.78125 36.464844 C 14.78125 35.992188 14.398438 35.613281 13.929688 35.613281 Z M 49.265625 21.691406 C 49.492188 21.695312 49.710938 21.605469 49.875 21.441406 C 50.035156 21.28125 50.125 21.0625 50.121094 20.832031 L 50.121094 15.953125 C 50.125 14.492188 49.109375 13.230469 47.683594 12.917969 L 47.683594 6.761719 C 47.78125 4.289062 46.519531 1.960938 44.398438 0.695312 C 42.273438 -0.570312 39.632812 -0.570312 37.511719 0.695312 C 35.390625 1.960938 34.128906 4.289062 34.222656 6.761719 L 34.222656 12.917969 C 32.800781 13.230469 31.78125 14.492188 31.777344 15.953125 L 31.777344 26.949219 C 31.777344 28.664062 33.164062 30.054688 34.878906 30.058594 L 47.019531 30.058594 C 48.734375 30.058594 50.121094 28.667969 50.121094 26.949219 L 50.121094 23.6875 C 50.121094 23.214844 49.742188 22.832031 49.269531 22.832031 C 48.800781 22.832031 48.417969 23.214844 48.417969 23.6875 L 48.417969 26.949219 C 48.414062 27.71875 47.789062 28.34375 47.019531 28.351562 L 34.878906 28.351562 C 34.109375 28.34375 33.484375 27.71875 33.480469 26.949219 L 33.480469 15.953125 C 33.484375 15.183594 34.109375 14.558594 34.878906 14.554688 L 47.019531 14.554688 C 47.789062 14.558594 48.414062 15.183594 48.417969 15.953125 L 48.417969 20.832031 C 48.414062 21.058594 48.503906 21.277344 48.664062 21.441406 C 48.820312 21.601562 49.039062 21.691406 49.265625 21.691406 Z M 45.96875 12.84375 L 35.929688 12.84375 L 35.929688 6.761719 C 35.929688 3.980469 38.175781 1.726562 40.949219 1.726562 C 43.722656 1.726562 45.96875 3.980469 45.96875 6.761719 Z M 40.949219 17.261719 C 39.371094 17.265625 38.039062 18.433594 37.824219 19.996094 C 37.609375 21.5625 38.582031 23.046875 40.101562 23.472656 L 40.101562 25.558594 C 40.097656 25.785156 40.1875 26.003906 40.347656 26.164062 C 40.503906 26.328125 40.722656 26.417969 40.949219 26.417969 C 41.175781 26.417969 41.394531 26.328125 41.554688 26.164062 C 41.714844 26.003906 41.804688 25.785156 41.804688 25.558594 L 41.804688 23.472656 C 43.320312 23.039062 44.285156 21.558594 44.070312 19.996094 C 43.855469 18.429688 42.523438 17.265625 40.949219 17.261719 Z M 40.949219 21.886719 C 40.144531 21.890625 39.492188 21.238281 39.488281 20.433594 C 39.488281 19.628906 40.136719 18.972656 40.9375 18.972656 C 41.742188 18.96875 42.394531 19.617188 42.398438 20.425781 C 42.398438 21.226562 41.75 21.882812 40.949219 21.886719 Z M 40.949219 21.886719 "/>
</g>
</svg>
