<svg width="19" height="17" viewBox="0 0 19 17" fill="none" xmlns="http://www.w3.org/2000/svg">
<path fill-rule="evenodd" clip-rule="evenodd" d="M9.912 16.2439C9.817 16.2439 9.722 16.2259 9.633 16.1879C9.28 16.3799 0.983 12.4379 0.983 5.42795C1.74 2.77795 3.19 0.720947 5.8 0.720947C7.544 0.720947 9.66 1.63895 9.912 3.30995C10.759 1.63895 12.282 0.720947 14.25 0.720947C16.634 0.720947 18.75 2.77795 18.842 5.40395C18.842 12.4379 10.545 16.3799 10.192 16.1879C10.103 16.2259 10.8 16.2439 9.912 16.2439ZM5.8 2.10595C3.954 2.10595 2.457 3.57495 2.392 5.45195C2.393 10.8589 8.517 14.1139 9.912 14.7859C11.308 14.1139 17.433 10.8559 17.433 5.42795C17.367 3.57495 15.87 2.10595 14.25 2.10595C12.18 2.10595 10.682 3.57495 10.617 5.45195C10.604 5.82495 10.292 6.12095 9.912 6.12095C9.532 6.12095 9.221 5.82495 9.208 5.45195C9.143 3.57495 7.646 2.10595 5.8 2.10595Z" fill="#243F4D"/>
</svg>
