<?xml version="1.0" encoding="UTF-8"?>
<svg xmlns="http://www.w3.org/2000/svg" xmlns:xlink="http://www.w3.org/1999/xlink" width="49px" height="49px" viewBox="0 0 49 49" version="1.1">
<g id="surface1">
<path style=" stroke:none;fill-rule:evenodd;fill:rgb(63.921569%,73.333333%,78.431373%);fill-opacity:1;" d="M 45.40625 11.578125 C 45.132812 11.140625 44.554688 11.003906 44.113281 11.277344 C 43.675781 11.550781 43.539062 12.128906 43.8125 12.570312 C 49.582031 21.835938 47.929688 33.894531 39.886719 41.273438 C 31.84375 48.648438 19.6875 49.253906 10.953125 42.710938 C 10.539062 42.417969 9.96875 42.511719 9.664062 42.914062 C 9.363281 43.320312 9.433594 43.894531 9.828125 44.210938 C 19.285156 51.292969 32.445312 50.640625 41.15625 42.65625 C 49.863281 34.667969 51.648438 21.613281 45.40625 11.578125 Z M 22.375 33.519531 L 14.824219 33.519531 L 19.570312 28.769531 C 21.972656 26.382812 23.320312 23.128906 23.3125 19.738281 C 23.3125 16.511719 20.695312 13.894531 17.46875 13.894531 C 14.242188 13.894531 11.625 16.511719 11.625 19.738281 C 11.640625 20.246094 12.054688 20.648438 12.5625 20.648438 C 13.070312 20.648438 13.484375 20.246094 13.5 19.738281 C 13.5 17.546875 15.277344 15.769531 17.46875 15.769531 C 19.660156 15.769531 21.4375 17.546875 21.4375 19.738281 C 21.445312 22.632812 20.292969 25.410156 18.242188 27.449219 L 11.898438 33.789062 C 11.632812 34.0625 11.550781 34.46875 11.699219 34.820312 C 11.84375 35.167969 12.1875 35.394531 12.566406 35.390625 L 22.378906 35.390625 C 22.894531 35.390625 23.3125 34.96875 23.3125 34.453125 C 23.3125 33.9375 22.890625 33.519531 22.375 33.519531 Z M 37.414062 27.078125 L 34.816406 27.078125 L 34.816406 25.558594 C 34.796875 25.054688 34.382812 24.652344 33.878906 24.652344 C 33.371094 24.652344 32.957031 25.054688 32.941406 25.558594 L 32.941406 27.078125 L 27.652344 27.078125 L 32.941406 18.230469 L 32.941406 22.441406 C 32.929688 22.78125 33.105469 23.101562 33.398438 23.277344 C 33.695312 23.453125 34.0625 23.453125 34.355469 23.277344 C 34.648438 23.101562 34.828125 22.78125 34.816406 22.441406 L 34.816406 14.820312 C 34.808594 14.492188 34.636719 14.191406 34.359375 14.019531 C 33.914062 13.757812 33.335938 13.90625 33.074219 14.351562 L 25.199219 27.539062 C 25.023438 27.828125 25.019531 28.1875 25.1875 28.480469 C 25.355469 28.773438 25.664062 28.957031 26.003906 28.960938 L 32.941406 28.960938 L 32.941406 34.460938 C 32.957031 34.964844 33.371094 35.367188 33.878906 35.367188 C 34.382812 35.367188 34.800781 34.964844 34.816406 34.460938 L 34.816406 28.960938 L 37.414062 28.960938 C 37.933594 28.960938 38.355469 28.539062 38.355469 28.019531 C 38.355469 27.5 37.933594 27.078125 37.414062 27.078125 Z M 42.746094 4.449219 C 42.746094 4.109375 42.5625 3.792969 42.265625 3.628906 C 41.96875 3.460938 41.605469 3.46875 41.3125 3.648438 C 41.023438 3.828125 40.855469 4.148438 40.871094 4.488281 L 40.910156 6.238281 C 30.964844 -2.65625 15.730469 -1.980469 6.613281 7.765625 C -2.507812 17.507812 -2.171875 32.753906 7.363281 42.089844 C 7.539062 42.261719 7.773438 42.359375 8.019531 42.359375 C 8.269531 42.363281 8.511719 42.261719 8.6875 42.078125 C 9.050781 41.707031 9.046875 41.113281 8.675781 40.75 C 2.097656 34.296875 0.078125 24.507812 3.5625 15.980469 C 7.046875 7.453125 15.34375 1.878906 24.558594 1.878906 C 30.128906 1.886719 35.503906 3.941406 39.664062 7.648438 L 37.820312 7.691406 C 37.304688 7.695312 36.890625 8.121094 36.898438 8.636719 C 36.902344 9.152344 37.328125 9.566406 37.84375 9.558594 L 37.867188 9.558594 L 41.925781 9.46875 C 42.175781 9.464844 42.410156 9.359375 42.582031 9.179688 C 42.753906 9 42.847656 8.757812 42.839844 8.511719 Z M 42.746094 4.449219 "/>
</g>
</svg>
