<?xml version="1.0" encoding="UTF-8"?>
<svg xmlns="http://www.w3.org/2000/svg" xmlns:xlink="http://www.w3.org/1999/xlink" width="50px" height="30px" viewBox="0 0 50 30" version="1.1">
<g id="surface1">
<path style=" stroke:none;fill-rule:evenodd;fill:rgb(63.921569%,73.333333%,78.431373%);fill-opacity:1;" d="M 9.1875 4.933594 L 2.9375 4.933594 C 2.492188 4.933594 2.128906 5.300781 2.128906 5.75 C 2.128906 6.203125 2.492188 6.570312 2.9375 6.570312 L 9.1875 6.570312 C 9.632812 6.570312 9.992188 6.203125 9.992188 5.75 C 9.992188 5.300781 9.632812 4.933594 9.1875 4.933594 Z M 9.722656 16.324219 L 4.007812 16.324219 C 3.566406 16.324219 3.207031 16.6875 3.207031 17.136719 C 3.207031 17.585938 3.566406 17.949219 4.007812 17.949219 L 9.722656 17.949219 C 10.164062 17.949219 10.523438 17.585938 10.523438 17.136719 C 10.523438 16.6875 10.164062 16.324219 9.722656 16.324219 Z M 7.585938 11.441406 L 0.804688 11.441406 C 0.359375 11.441406 -0.00390625 11.808594 -0.00390625 12.257812 C -0.00390625 12.710938 0.359375 13.074219 0.804688 13.074219 L 7.589844 13.074219 C 8.035156 13.074219 8.394531 12.707031 8.394531 12.257812 C 8.394531 11.804688 8.03125 11.441406 7.585938 11.441406 Z M 7.585938 22.832031 L 6.925781 22.832031 C 6.484375 22.832031 6.125 23.195312 6.125 23.644531 C 6.125 24.089844 6.484375 24.457031 6.925781 24.457031 L 7.582031 24.457031 C 8.027344 24.457031 8.386719 24.09375 8.386719 23.644531 C 8.386719 23.195312 8.027344 22.832031 7.585938 22.832031 Z M 4.257812 22.832031 L 0.804688 22.832031 C 0.363281 22.832031 0.00390625 23.195312 0.00390625 23.644531 C 0.00390625 24.089844 0.363281 24.457031 0.804688 24.457031 L 4.261719 24.457031 C 4.703125 24.453125 5.058594 24.089844 5.058594 23.640625 C 5.058594 23.191406 4.699219 22.828125 4.257812 22.832031 Z M 41.867188 2.285156 L 35.074219 2.285156 L 35.074219 0.816406 C 35.074219 0.371094 34.714844 0.0078125 34.273438 0.0117188 L 21.851562 0.0117188 C 21.40625 0.0117188 21.050781 0.375 21.050781 0.824219 C 21.050781 1.269531 21.40625 1.632812 21.851562 1.632812 L 33.472656 1.632812 L 33.472656 19.449219 C 33.460938 19.746094 33.613281 20.023438 33.863281 20.175781 C 34.117188 20.328125 34.429688 20.328125 34.683594 20.175781 C 34.933594 20.023438 35.085938 19.746094 35.074219 19.449219 L 35.074219 3.910156 L 41.867188 3.910156 C 45.539062 3.917969 48.511719 6.933594 48.511719 10.65625 L 48.511719 24.402344 L 46.46875 24.402344 C 46.078125 21.90625 43.953125 20.066406 41.457031 20.066406 C 38.960938 20.066406 36.835938 21.90625 36.445312 24.402344 L 35.074219 24.402344 L 35.074219 23.246094 C 35.082031 22.949219 34.933594 22.667969 34.679688 22.515625 C 34.429688 22.363281 34.113281 22.363281 33.863281 22.515625 C 33.609375 22.667969 33.457031 22.949219 33.46875 23.246094 L 33.46875 24.402344 L 24.964844 24.402344 C 24.570312 21.90625 22.445312 20.070312 19.953125 20.070312 C 17.457031 20.070312 15.332031 21.90625 14.941406 24.402344 L 13.273438 24.402344 L 13.273438 1.632812 L 18.640625 1.632812 C 19.082031 1.632812 19.441406 1.269531 19.441406 0.824219 C 19.441406 0.375 19.082031 0.0117188 18.640625 0.0117188 L 12.472656 0.0117188 C 12.03125 0.0078125 11.671875 0.371094 11.671875 0.816406 L 11.671875 25.21875 C 11.671875 25.667969 12.027344 26.035156 12.472656 26.039062 L 14.941406 26.039062 C 15.332031 28.535156 17.457031 30.371094 19.953125 30.371094 C 22.445312 30.371094 24.570312 28.535156 24.964844 26.039062 L 36.445312 26.039062 C 36.835938 28.535156 38.960938 30.375 41.457031 30.375 C 43.953125 30.375 46.078125 28.535156 46.46875 26.039062 L 49.308594 26.039062 C 49.75 26.035156 50.109375 25.667969 50.109375 25.21875 L 50.109375 10.65625 C 50.105469 6.039062 46.421875 2.296875 41.867188 2.285156 Z M 19.957031 28.75 C 18.03125 28.753906 16.46875 27.175781 16.464844 25.226562 C 16.460938 23.277344 18.019531 21.695312 19.941406 21.691406 C 21.863281 21.691406 23.425781 23.269531 23.425781 25.21875 C 23.425781 27.164062 21.871094 28.742188 19.957031 28.75 Z M 41.460938 28.75 C 39.542969 28.742188 37.992188 27.164062 37.992188 25.21875 C 37.996094 23.28125 39.550781 21.710938 41.46875 21.714844 C 43.382812 21.71875 44.929688 23.292969 44.929688 25.234375 C 44.925781 27.175781 43.375 28.75 41.460938 28.75 Z M 41.867188 5.535156 L 37.480469 5.535156 C 37.039062 5.539062 36.679688 5.902344 36.679688 6.351562 L 36.679688 13.996094 C 36.679688 14.445312 37.039062 14.808594 37.480469 14.8125 L 46.109375 14.8125 C 46.554688 14.808594 46.910156 14.445312 46.914062 13.996094 L 46.914062 10.65625 C 46.914062 7.828125 44.65625 5.539062 41.867188 5.535156 Z M 45.304688 13.179688 L 38.28125 13.179688 L 38.28125 7.167969 L 41.867188 7.167969 C 43.765625 7.171875 45.304688 8.730469 45.304688 10.65625 Z M 19.957031 23.121094 C 18.808594 23.117188 17.878906 24.054688 17.878906 25.214844 C 17.875 26.378906 18.800781 27.320312 19.945312 27.320312 C 21.089844 27.320312 22.019531 26.382812 22.019531 25.21875 C 22.019531 24.0625 21.097656 23.125 19.957031 23.121094 Z M 19.957031 25.695312 C 19.699219 25.695312 19.492188 25.480469 19.492188 25.21875 C 19.503906 24.96875 19.707031 24.773438 19.953125 24.773438 C 20.203125 24.773438 20.40625 24.96875 20.417969 25.21875 C 20.417969 25.480469 20.210938 25.691406 19.957031 25.695312 Z M 41.460938 23.121094 C 40.316406 23.117188 39.386719 24.058594 39.382812 25.21875 C 39.382812 26.378906 40.308594 27.320312 41.453125 27.320312 C 42.597656 27.320312 43.527344 26.382812 43.527344 25.21875 C 43.527344 24.0625 42.601562 23.125 41.460938 23.121094 Z M 41.460938 25.695312 C 41.203125 25.691406 40.996094 25.480469 40.996094 25.21875 C 40.996094 24.960938 41.203125 24.75 41.460938 24.75 C 41.714844 24.75 41.921875 24.960938 41.921875 25.21875 C 41.921875 25.480469 41.71875 25.691406 41.460938 25.695312 Z M 46.105469 17.039062 C 45.664062 17.035156 45.304688 17.398438 45.304688 17.84375 L 45.304688 19.902344 C 45.292969 20.199219 45.445312 20.480469 45.695312 20.632812 C 45.949219 20.785156 46.261719 20.785156 46.515625 20.632812 C 46.765625 20.480469 46.917969 20.199219 46.90625 19.902344 L 46.90625 17.84375 C 46.90625 17.398438 46.550781 17.039062 46.109375 17.039062 Z M 46.105469 17.039062 "/>
</g>
</svg>
